<svg xmlns="http://www.w3.org/2000/svg" xmlns:xlink="http://www.w3.org/1999/xlink" width="56.252" height="55.699" viewBox="0 0 56.252 55.699">
  <defs>
    <linearGradient id="linear-gradient" x1="0.248" x2="0.819" y2="1" gradientUnits="objectBoundingBox">
      <stop offset="0" stop-color="#fff"/>
      <stop offset="1" stop-color="#9f9f9f"/>
    </linearGradient>
  </defs>
  <path id="loading" d="M-3172.256-1599.5a21.807,21.807,0,0,1-8.369-1.65,21.462,21.462,0,0,1-6.833-4.5c-.309-.3-.614-.618-.9-.938l2.548-1.508a18.862,18.862,0,0,0,13.559,5.75,18.393,18.393,0,0,0,18.585-18.153,18.394,18.394,0,0,0-18.585-18.153,18.393,18.393,0,0,0-18.584,18.153,17.838,17.838,0,0,0,.327,3.4l-2.655,1.5a20.632,20.632,0,0,1-.587-4.9,20.455,20.455,0,0,1,1.689-8.174,20.927,20.927,0,0,1,4.608-6.675,21.469,21.469,0,0,1,6.833-4.5,21.805,21.805,0,0,1,8.369-1.65,21.8,21.8,0,0,1,8.369,1.65,21.463,21.463,0,0,1,6.834,4.5,20.9,20.9,0,0,1,4.607,6.675,20.453,20.453,0,0,1,1.69,8.174,20.453,20.453,0,0,1-1.69,8.174,20.9,20.9,0,0,1-4.607,6.675,21.467,21.467,0,0,1-6.834,4.5A21.8,21.8,0,0,1-3172.256-1599.5Z" transform="translate(-2306.088 -2663) rotate(-158)" stroke="#828282" stroke-width="0.5" fill="url(#linear-gradient)"/>
</svg>
